<svg width="132" height="16" viewBox="0 0 132 16" fill="none" xmlns="http://www.w3.org/2000/svg">
<g clip-path="url(#clip0_0_3844)">
<path d="M0.800781 15.191H14.2613V12.7263H3.38751V3.12354H14.2613V0.655273H0.800781V15.191Z" fill="black"/>
<path d="M30.4699 2.77707C29.771 2.09235 28.9331 1.56068 28.0112 1.21684C26.9585 0.830299 25.8417 0.640882 24.7183 0.658331H17.1191V15.1941H24.7147C25.8373 15.2102 26.9534 15.0234 28.0076 14.6428C28.9282 14.3067 29.7662 13.7823 30.4662 13.1041C31.134 12.4449 31.6527 11.6541 31.9883 10.7836C32.3373 9.87052 32.5122 8.90182 32.5041 7.92619C32.5137 6.95513 32.3387 5.99088 31.9883 5.08319C31.6491 4.21958 31.1321 3.43441 30.4699 2.77707ZM19.7059 3.1374H24.6159C25.4048 3.11968 26.1905 3.24173 26.9355 3.49773C27.5395 3.70977 28.0864 4.05485 28.5344 4.50666C28.9533 4.94102 29.276 5.45638 29.482 6.02004C29.6981 6.63655 29.8057 7.28484 29.8003 7.937C29.8164 8.59229 29.7084 9.24478 29.482 9.86117C29.2787 10.4461 28.9422 10.9775 28.4983 11.4147C28.0544 11.8519 27.5148 12.1832 26.9209 12.3835C26.1759 12.6395 25.3902 12.7615 24.6013 12.7438H19.7059V3.1374Z" fill="black"/>
<path d="M47.077 8.83052C47.0881 9.57908 46.8934 10.3166 46.5133 10.965C46.1333 11.6133 45.5821 12.1483 44.9183 12.5131C44.0948 12.8897 43.1955 13.0782 42.2877 13.0644C41.4828 13.0644 40.0266 12.8734 39.3826 12.5131C38.7222 12.1454 38.1744 11.6095 37.7965 10.9616C37.4186 10.3137 37.2247 9.57763 37.235 8.83052V0.80957H34.6482V8.95303C34.63 10.1366 34.9332 11.3034 35.5263 12.3329C36.1057 13.321 36.9466 14.1355 37.9594 14.6895C38.9802 15.2552 40.9083 15.5543 42.2877 15.5543C43.6584 15.5813 45.0158 15.2847 46.2464 14.6895C47.2592 14.1355 48.1002 13.321 48.6795 12.3329C49.2743 11.3041 49.5776 10.1368 49.5576 8.95303V0.80957H47.077V8.83052Z" fill="black"/>
<path d="M55.8543 0.655273H53.2676V15.191H55.8543V0.655273Z" fill="black"/>
<path d="M58.002 6.39466L64.9975 15.1903H68.283L59.7069 4.50293L58.002 6.39466Z" fill="black"/>
<path d="M82.3433 2.59755C81.5791 1.90598 80.6856 1.36749 79.7126 1.0121C78.6582 0.631756 77.5426 0.442533 76.4198 0.453582C75.296 0.44317 74.1799 0.636147 73.1269 1.02291C72.1581 1.38471 71.267 1.92252 70.4999 2.60836C69.7571 3.27258 69.1638 4.08271 68.7584 4.98654C68.3553 5.91534 68.1475 6.91495 68.1475 7.92503C68.1475 8.93512 68.3553 9.93472 68.7584 10.8635C69.1638 11.7674 69.7571 12.5775 70.4999 13.2417C71.267 13.9275 72.1581 14.4654 73.1269 14.8272C74.1799 15.2139 75.296 15.4069 76.4198 15.3965C77.5426 15.4075 78.6582 15.2183 79.7126 14.838C80.6856 14.4826 81.5791 13.9441 82.3433 13.2525C83.0847 12.5813 83.6798 11.7684 84.0921 10.8635C84.5024 9.93656 84.7141 8.93623 84.7141 7.92503C84.7141 6.91384 84.5024 5.91351 84.0921 4.98654C83.6788 4.08217 83.0839 3.26953 82.3433 2.59755ZM76.4088 12.9102C75.6316 12.9176 74.8595 12.787 74.1294 12.5247C73.469 12.2848 72.858 11.9296 72.3256 11.4761C71.8238 11.0406 71.4254 10.5018 71.1585 9.89785C70.8894 9.27073 70.7508 8.59684 70.7508 7.91603C70.7508 7.23522 70.8894 6.56133 71.1585 5.93421C71.4276 5.33459 71.8258 4.79976 72.3256 4.36677C72.858 3.9133 73.469 3.55809 74.1294 3.31821C75.6079 2.80416 77.2206 2.80416 78.6991 3.31821C79.3595 3.5563 79.9679 3.9158 80.4919 4.37758C80.9983 4.82274 81.4034 5.36823 81.6809 5.97833C81.9583 6.58842 82.1017 7.24935 82.1017 7.91783C82.1017 8.5863 81.9583 9.24723 81.6809 9.85733C81.4034 10.4674 80.9983 11.0129 80.4919 11.4581C79.9667 11.9183 79.3586 12.2776 78.6991 12.5174C77.9663 12.7844 77.1901 12.9175 76.4088 12.9102Z" fill="black"/>
<path d="M90.3889 4.39545C90.8852 3.96501 91.4584 3.62902 92.0792 3.40454C93.2886 2.9904 94.5982 2.95391 95.8294 3.30005C96.3764 3.45397 96.9013 3.67553 97.3917 3.95945C97.8985 4.25466 98.3751 4.59736 98.815 4.98279L98.9577 5.10891L100.553 3.09466L100.447 2.98296C99.9788 2.50689 99.4411 2.10245 98.8516 1.78306C98.1654 1.40617 97.439 1.10526 96.6856 0.885833C95.8732 0.648448 95.0304 0.527101 94.183 0.525503C93.1283 0.520155 92.0816 0.705809 91.095 1.07321C90.1476 1.42491 89.2779 1.95346 88.5339 2.62984C87.8004 3.29402 87.2062 4.09342 86.785 4.98279C86.3528 5.90156 86.1329 6.90332 86.1411 7.91588C86.1292 8.95913 86.3373 9.99346 86.7521 10.9535C87.1465 11.8524 87.7243 12.6619 88.4498 13.3316C89.1846 14.0013 90.0479 14.5195 90.9889 14.8558C92.7983 15.4912 94.7636 15.5567 96.6124 15.0432C97.3572 14.8382 98.0763 14.5517 98.7564 14.1892C99.3029 13.9067 99.8107 13.5567 100.267 13.1479L100.374 13.047L99.0967 10.9391L98.9321 11.0796C98.5465 11.3988 98.1354 11.6868 97.7027 11.9408C97.2249 12.2204 96.7169 12.4464 96.188 12.6146C95.5957 12.7949 94.9786 12.8836 94.3586 12.8776C93.6277 12.8824 92.901 12.7692 92.2073 12.5425C91.5576 12.3308 90.9534 12.0022 90.4255 11.5732C89.9106 11.1494 89.495 10.6208 89.2071 10.0238C88.9026 9.3622 88.7514 8.64217 88.7644 7.91588C88.7561 7.22948 88.9036 6.54993 89.1961 5.92686C89.486 5.34316 89.8916 4.82247 90.3889 4.39545Z" fill="black"/>
<path d="M125.378 0.658203H122.652L115.989 15.1939H118.693L123.003 5.84696C123.106 5.60193 123.219 5.3461 123.336 5.07225V5.03982C123.46 4.75636 123.582 4.46089 123.702 4.15341L123.921 3.6021C123.987 3.77506 124.06 3.96243 124.134 4.12458C124.262 4.43446 124.39 4.73714 124.499 5.02541L124.81 5.77129L129.135 15.1939H131.963L125.378 0.658203Z" fill="black"/>
<path d="M105.471 4.39545C105.967 3.96501 106.54 3.62902 107.161 3.40454C108.371 2.9904 109.68 2.95391 110.911 3.30005C111.458 3.45462 111.983 3.67615 112.474 3.95945C112.98 4.2553 113.457 4.59797 113.897 4.98279L114.04 5.10891L115.635 3.09466L115.529 2.98296C115.059 2.50689 114.52 2.10247 113.93 1.78306C113.244 1.4049 112.518 1.10393 111.764 0.885833C110.953 0.648448 110.111 0.527098 109.265 0.525503C108.21 0.520155 107.163 0.705809 106.177 1.07321C105.23 1.42613 104.361 1.95454 103.616 2.62984C102.885 3.29598 102.291 4.09492 101.867 4.98279C101.436 5.90209 101.216 6.90349 101.223 7.91588C101.213 8.95897 101.421 9.99294 101.834 10.9535C102.23 11.8526 102.809 12.6621 103.535 13.3316C104.27 14.0013 105.133 14.5195 106.074 14.8558C107.884 15.4912 109.849 15.5567 111.698 15.0432C112.443 14.8375 113.162 14.5511 113.842 14.1892C114.389 13.9074 114.897 13.5574 115.353 13.1479L115.456 13.047L114.182 10.9391L114.018 11.0796C113.632 11.3988 113.221 11.6868 112.788 11.9408C112.31 12.2204 111.802 12.4464 111.274 12.6146C110.681 12.7949 110.064 12.8836 109.444 12.8776C108.713 12.8824 107.987 12.7692 107.293 12.5425C106.642 12.3324 106.038 12.0036 105.511 11.5732C104.996 11.1494 104.581 10.6208 104.293 10.0238C103.988 9.3622 103.837 8.64217 103.85 7.91588C103.842 7.22948 103.989 6.54993 104.282 5.92686C104.569 5.3427 104.974 4.82181 105.471 4.39545Z" fill="black"/>
<path d="M67.4676 1.72026L52.1934 5.75098L52.8089 8.01332L68.0831 3.9826L67.4676 1.72026Z" fill="#5F00CC"/>
<path d="M13.5526 5.3658L0.00292969 8.94141L0.618448 11.2037L14.1681 7.62814L13.5526 5.3658Z" fill="#5F00CC"/>
<path d="M131.544 5.38855L117.938 8.98047L118.556 11.2524L132.163 7.66043L131.544 5.38855Z" fill="#5F00CC"/>
</g>
<defs>
<clipPath id="clip0_0_3844">
<rect width="132" height="15.0978" fill="white" transform="translate(0 0.453125)"/>
</clipPath>
</defs>
</svg>
