<svg width="189" height="30" viewBox="0 0 189 30" fill="none" xmlns="http://www.w3.org/2000/svg">
<g clip-path="url(#clip0_805_7405)">
<path d="M9.2627 9.40643L17.3627 1.30859H29.6752L9.26491 21.7234L9.2627 9.40643Z" fill="#691F74"/>
<path d="M9.26491 21.7232L17.3649 29.8276H29.6752L9.2627 9.40625L9.26491 21.7232Z" fill="#691F74"/>
<path d="M15.4206 15.569L9.2627 21.7227L11.9216 24.3834L18.0796 18.2298L15.4206 15.569Z" fill="#412249"/>
<path d="M2.50431 10.2119C2.95959 10.2119 3.34636 10.0594 3.6602 9.7522C3.97624 9.445 4.13316 9.0737 4.13316 8.63389C4.13316 8.19408 3.97845 7.81836 3.67125 7.51557C3.36404 7.21279 2.97064 7.0625 2.49547 7.0625C1.96505 7.0625 1.54734 7.25257 1.24013 7.63271C0.999229 7.92886 0.879883 8.26701 0.879883 8.64936C0.879883 9.08254 1.0368 9.44942 1.34843 9.75441C1.66005 10.0594 2.04682 10.2097 2.50431 10.2097V10.2119Z" fill="#691F74"/>
<path d="M0 23.6758V25.7223L3.14056 23.6758H0Z" fill="#691F74"/>
<path d="M2.42891 1.30859H0V3.78833C0.0110505 3.07005 0.245322 2.47774 0.705024 2.01583C1.1581 1.56276 1.73272 1.32848 2.42891 1.30859Z" fill="#691F74"/>
<path d="M0 12.668V14.7145L3.14056 12.668H0Z" fill="#691F74"/>
<path d="M8.64815 1.30885H2.58362C3.03448 1.31769 3.43893 1.42378 3.79254 1.62932C4.16384 1.84591 4.46221 2.15532 4.68764 2.55756C4.91307 2.9598 5.02578 3.39298 5.02578 3.85711C5.02578 4.25271 4.9418 4.63285 4.77604 4.99752C4.60807 5.36219 4.37159 5.67823 4.06439 5.94345L3.45661 5.30694C3.9141 4.87375 4.14395 4.38532 4.14395 3.84384C4.14395 3.38635 3.98703 3.00179 3.67541 2.68796C3.36378 2.37412 2.97701 2.2172 2.51952 2.2172C2.20127 2.2172 1.91616 2.28572 1.66863 2.42496C1.4211 2.56419 1.22661 2.76089 1.08516 3.01284C0.943716 3.26701 0.872992 3.54769 0.872992 3.85931C0.872992 4.12453 0.921615 4.36543 1.02107 4.58423C1.12052 4.80303 1.29954 5.04393 1.56034 5.30694L0.914984 5.92577C0.570208 5.57215 0.329306 5.23842 0.1967 4.92238C0.0707234 4.61959 0.00663032 4.27703 0 3.89468V8.60221C0.0110505 7.90602 0.258583 7.32476 0.742596 6.86064C1.23987 6.38547 1.82997 6.14678 2.51289 6.14678C2.97038 6.14678 3.39251 6.25728 3.77486 6.47829C4.15942 6.6993 4.46221 7.0043 4.68764 7.39107C4.91307 7.77784 5.02357 8.19555 5.02357 8.6442C5.02357 9.3227 4.77825 9.90396 4.28761 10.3902C3.79696 10.8764 3.20024 11.1217 2.49521 11.1217C1.79019 11.1217 1.20451 10.8808 0.722705 10.4012C0.251952 9.93269 0.0110505 9.36469 0 8.69945V11.7582H4.78709V12.6312L1.63769 14.68H4.78709V15.5906H0V17.0669H3.88979V16.2182H4.78709V18.8637H3.88979V17.9907H0V19.4914H4.78709V22.1038H3.89642V20.3953H3.03006V22.1038H2.15485V20.3953H0.895094V22.1038H0V22.7624H4.78709V23.6354L1.63769 25.6841H4.78709V26.5947H0V28.071H3.88979V27.2224H4.78709V29.8259H8.64815V1.30664V1.30885Z" fill="#691F74"/>
<path d="M3.88979 28.998H0V29.8268H3.88979V28.998Z" fill="#691F74"/>
<path d="M39.877 24.127H40.9754V26.7857H41.0019C41.1456 26.5625 41.2981 26.357 41.4439 26.1603L43.0286 24.1292H44.3966L42.3081 26.589L44.5314 29.9086H43.2341L41.5146 27.2587L40.9754 27.8753V29.9086H39.877V24.1292V24.127Z" fill="#691F74"/>
<path d="M46.4233 27.0431C46.4233 28.2189 47.0443 29.1604 48.1074 29.1604C49.1705 29.1604 49.7827 28.2078 49.7827 26.9989C49.7827 25.9093 49.2169 24.8728 48.1074 24.8728C46.9979 24.8728 46.4233 25.8497 46.4233 27.0431ZM50.9518 26.9569C50.9518 28.8952 49.7186 30.0002 48.0433 30.0002C46.3681 30.0002 45.252 28.7582 45.252 27.0608C45.252 25.3634 46.4233 24.0352 48.1339 24.0352C49.8446 24.0352 50.9518 25.3126 50.9518 26.9591" fill="#691F74"/>
<path d="M53.4539 26.7602H54.1103C54.8573 26.7602 55.3259 26.3822 55.3259 25.8076C55.3259 25.1733 54.8573 24.8816 54.1368 24.8816C53.7854 24.8816 53.56 24.9081 53.4517 24.9324V26.758L53.4539 26.7602ZM52.3555 24.2053C52.7688 24.1368 53.392 24.0859 54.0307 24.0859C54.9037 24.0859 55.4982 24.223 55.9027 24.5478C56.2364 24.8131 56.4243 25.2175 56.4243 25.7059C56.4243 26.4508 55.8939 26.9591 55.3259 27.1558V27.1823C55.759 27.337 56.0198 27.7392 56.1723 28.2962C56.3624 29.0167 56.5237 29.6841 56.6497 29.9074H55.5071C55.4165 29.7372 55.2728 29.2642 55.1026 28.5437C54.9325 27.7901 54.6429 27.5492 54.013 27.5315H53.4561V29.9074H52.3577V24.2053H52.3555Z" fill="#691F74"/>
<path d="M61.3225 27.3427H59.035V29.04H61.5921V29.9064H57.9277V24.127H61.4573V24.9933H59.035V26.4851H61.3225V27.3427Z" fill="#691F74"/>
<path d="M65.9678 27.4708L65.4904 26.0475C65.3732 25.6961 65.2738 25.3027 65.1854 24.9668H65.1677C65.0771 25.3005 64.9865 25.7028 64.8804 26.0475L64.4118 27.4708H65.97H65.9678ZM64.2306 28.2687L63.709 29.9064H62.5664L64.5113 24.127H65.9258L67.8972 29.9064H66.7081L66.1578 28.2687H64.2306Z" fill="#691F74"/>
<path d="M75.8508 29.7353C75.59 29.8635 75.0132 30.0005 74.2839 30.0005C72.3566 30.0005 71.1875 28.8424 71.1875 27.0854C71.1875 25.1825 72.5732 24.0332 74.4297 24.0332C75.1591 24.0332 75.6806 24.1791 75.9061 24.2896L75.663 25.1294C75.3757 25.0101 74.9778 24.9062 74.4739 24.9062C73.2407 24.9062 72.35 25.6444 72.35 27.0323C72.35 28.3009 73.1324 29.1165 74.4651 29.1165C74.9159 29.1165 75.3845 29.0303 75.6718 28.9021L75.853 29.7331L75.8508 29.7353Z" fill="#691F74"/>
<path d="M78.3465 26.7602H79.0029C79.7499 26.7602 80.2184 26.3822 80.2184 25.8076C80.2184 25.1733 79.7499 24.8816 79.0294 24.8816C78.678 24.8816 78.4526 24.9081 78.3443 24.9324V26.758L78.3465 26.7602ZM77.248 24.2053C77.6613 24.1368 78.2846 24.0859 78.9233 24.0859C79.7963 24.0859 80.3908 24.223 80.7953 24.5478C81.129 24.8131 81.3169 25.2175 81.3169 25.7059C81.3169 26.4508 80.7864 26.9591 80.2184 27.1558V27.1823C80.6516 27.337 80.9124 27.7392 81.0649 28.2962C81.255 29.0167 81.4163 29.6841 81.5423 29.9074H80.3997C80.309 29.7372 80.1654 29.2642 79.9952 28.5437C79.825 27.7901 79.5355 27.5492 78.9056 27.5315H78.3487V29.9074H77.2503V24.2053H77.248Z" fill="#691F74"/>
<path d="M86.2141 27.3427H83.9266V29.04H86.4837V29.9064H82.8193V24.127H86.3489V24.9933H83.9266V26.4851H86.2141V27.3427Z" fill="#691F74"/>
<path d="M90.8584 27.4708L90.381 26.0475C90.2639 25.6961 90.1644 25.3027 90.076 24.9668H90.0583C89.9677 25.3005 89.8771 25.7028 89.771 26.0475L89.3025 27.4708H90.8606H90.8584ZM89.1212 28.2687L88.5997 29.9064H87.457L89.4019 24.127H90.8164L92.7878 29.9064H91.5988L91.0485 28.2687H89.1212Z" fill="#691F74"/>
<path d="M95.243 25.0088H93.5146V24.127H98.0984V25.0088H96.3502V29.9064H95.243V25.0088Z" fill="#691F74"/>
<path d="M100.366 24.127H99.2588V29.9064H100.366V24.127Z" fill="#691F74"/>
<path d="M103.471 29.9064L101.509 24.127H102.716L103.544 26.7504C103.779 27.4797 103.975 28.156 104.139 28.8588H104.156C104.318 28.1737 104.534 27.4686 104.778 26.768L105.659 24.127H106.84L104.742 29.9064H103.474H103.471Z" fill="#691F74"/>
<path d="M111.339 27.3427H109.054V29.04H111.611V29.9064H107.944V24.127H111.474V24.9933H109.054V26.4851H111.339V27.3427Z" fill="#691F74"/>
<path d="M119.514 29.7353C119.253 29.8635 118.676 30.0005 117.947 30.0005C116.02 30.0005 114.851 28.8424 114.851 27.0854C114.851 25.1825 116.236 24.0332 118.093 24.0332C118.822 24.0332 119.344 24.1791 119.569 24.2896L119.326 25.1294C119.039 25.0101 118.641 24.9062 118.137 24.9062C116.904 24.9062 116.013 25.6444 116.013 27.0323C116.013 28.3009 116.795 29.1165 118.128 29.1165C118.579 29.1165 119.048 29.0303 119.335 28.9021L119.516 29.7331L119.514 29.7353Z" fill="#691F74"/>
<path d="M121.342 27.0431C121.342 28.2189 121.963 29.1604 123.026 29.1604C124.089 29.1604 124.702 28.2078 124.702 26.9989C124.702 25.9093 124.136 24.8728 123.026 24.8728C121.917 24.8728 121.342 25.8497 121.342 27.0431ZM125.871 26.9569C125.871 28.8952 124.638 30.0002 122.962 30.0002C121.287 30.0002 120.171 28.7582 120.171 27.0608C120.171 25.3634 121.342 24.0352 123.053 24.0352C124.764 24.0352 125.871 25.3126 125.871 26.9591" fill="#691F74"/>
<path d="M126.85 29.9064V24.127H128.109L129.676 26.6045C130.081 27.2476 130.432 27.9151 130.713 28.5427H130.731C130.658 27.7714 130.631 27.0266 130.631 26.1426V24.127H131.657V29.9064H130.514L128.929 27.3603C128.543 26.7349 128.138 26.0232 127.84 25.3712L127.813 25.3801C127.86 26.1249 127.868 26.8896 127.868 27.8399V29.9064H126.852H126.85Z" fill="#691F74"/>
<path d="M134.125 25.0088H132.396V24.127H136.978V25.0088H135.232V29.9064H134.125V25.0088Z" fill="#691F74"/>
<path d="M141.112 27.3427H138.824V29.04H141.381V29.9064H137.717V24.127H141.246V24.9933H138.824V26.4851H141.112V27.3427Z" fill="#691F74"/>
<path d="M142.38 29.9064V24.127H143.64L145.207 26.6045C145.611 27.2476 145.962 27.9151 146.243 28.5427H146.261C146.188 27.7714 146.161 27.0266 146.161 26.1426V24.127H147.187V29.9064H146.044L144.46 27.3603C144.073 26.7349 143.668 26.0232 143.37 25.3712L143.343 25.3801C143.388 26.1249 143.399 26.8896 143.399 27.8399V29.9064H142.382H142.38Z" fill="#691F74"/>
<path d="M149.653 25.0088H147.925V24.127H152.509V25.0088H150.76V29.9064H149.653V25.0088Z" fill="#691F74"/>
<path d="M157.729 27.4708L157.252 26.0475C157.135 25.6961 157.036 25.3027 156.947 24.9668H156.929C156.839 25.3005 156.748 25.7028 156.642 26.0475L156.174 27.4708H157.732H157.729ZM155.992 28.2687L155.471 29.9064H154.328L156.273 24.127H157.687L159.659 29.9064H158.47L157.92 28.2687H155.992Z" fill="#691F74"/>
<path d="M165.391 29.6403C165.005 29.7773 164.249 29.9652 163.438 29.9652C162.412 29.9652 161.636 29.7177 161.06 29.1939C160.518 28.7054 160.204 27.9429 160.213 27.0677C160.213 25.2422 161.581 24.0664 163.59 24.0664C164.337 24.0664 164.923 24.2123 165.201 24.3405L164.958 25.1891C164.624 25.0521 164.22 24.9394 163.581 24.9394C162.286 24.9394 161.376 25.6687 161.376 27.0147C161.376 28.3606 162.222 29.1077 163.482 29.1077C163.877 29.1077 164.176 29.0568 164.319 28.9883V27.5473H163.248V26.7163H165.391V29.6403Z" fill="#691F74"/>
<path d="M169.946 27.3427H167.659V29.04H170.216V29.9064H166.552V24.127H170.081V24.9933H167.659V26.4851H169.946V27.3427Z" fill="#691F74"/>
<path d="M171.215 29.9064V24.127H172.475L174.042 26.6045C174.446 27.2476 174.797 27.9151 175.078 28.5427H175.096C175.023 27.7714 174.996 27.0266 174.996 26.1426V24.127H176.022V29.9064H174.879L173.295 27.3603C172.908 26.7349 172.503 26.0232 172.205 25.3712L172.178 25.3801C172.225 26.1249 172.234 26.8896 172.234 27.8399V29.9064H171.217H171.215Z" fill="#691F74"/>
<path d="M181.676 29.7353C181.415 29.8635 180.838 30.0005 180.109 30.0005C178.182 30.0005 177.013 28.8424 177.013 27.0854C177.013 25.1825 178.398 24.0332 180.255 24.0332C180.984 24.0332 181.506 24.1791 181.731 24.2896L181.488 25.1294C181.201 25.0101 180.803 24.9062 180.299 24.9062C179.066 24.9062 178.173 25.6444 178.173 27.0323C178.173 28.3009 178.955 29.1165 180.288 29.1165C180.739 29.1165 181.207 29.0303 181.495 28.9021L181.676 29.7331V29.7353Z" fill="#691F74"/>
<path d="M184.025 29.9064V27.4974L182.106 24.127H183.366L184.096 25.6099C184.303 26.0387 184.456 26.3636 184.617 26.7592H184.635C184.787 26.3901 184.96 26.0299 185.165 25.6099L185.895 24.127H187.146L185.128 27.4708V29.9064H184.02H184.025Z" fill="#691F74"/>
<path d="M40.8521 8.65947C40.8521 7.71576 41.6565 6.94885 42.6467 6.94885C43.6368 6.94885 44.4435 7.71576 44.4435 8.65947C44.4435 9.60319 43.639 10.3701 42.6467 10.3701C41.6543 10.3701 40.8521 9.60319 40.8521 8.65947ZM46.7133 8.65947C46.7133 6.52451 44.8877 4.78516 42.6467 4.78516C40.4056 4.78516 38.5801 6.5223 38.5801 8.65947C38.5801 10.7966 40.4034 12.5338 42.6467 12.5338C44.8899 12.5338 46.7133 10.7966 46.7133 8.65947Z" fill="#691F74"/>
<path d="M178.506 2.59775C179.456 2.59775 180.232 3.29836 180.232 4.1603C180.232 5.02224 179.456 5.72063 178.506 5.72063C177.556 5.72063 176.78 5.02003 176.78 4.1603C176.78 3.30057 177.553 2.59775 178.506 2.59775ZM178.506 7.84013C180.749 7.84013 182.573 6.18918 182.573 4.1603C182.573 2.13142 180.749 0.480469 178.506 0.480469C176.263 0.480469 174.439 2.13142 174.439 4.1603C174.439 6.18918 176.265 7.84013 178.506 7.84013Z" fill="#691F74"/>
<path d="M161.676 7.24031C160.726 7.24031 159.95 6.57507 159.95 5.75733C159.95 4.93959 160.724 4.27435 161.676 4.27435C162.629 4.27435 163.402 4.93959 163.402 5.75733C163.402 6.57507 162.629 7.24031 161.676 7.24031ZM157.61 5.75733C157.61 7.68454 159.433 9.25372 161.676 9.25372C163.92 9.25372 165.743 7.68675 165.743 5.75733C165.743 4.85119 165.336 4.02682 164.675 3.40578H166.886C167.301 3.40578 167.686 3.18476 167.893 2.82231L168.667 1.48298H162.846V0H160.487V1.48077H154.684V3.40357H158.675C158.014 4.02461 157.608 4.84898 157.608 5.75512" fill="#691F74"/>
<path d="M161.677 18.073C160.638 18.073 159.791 17.3945 159.791 16.5613C159.791 15.728 160.638 15.0473 161.677 15.0473C162.715 15.0473 163.562 15.7258 163.562 16.5613C163.562 17.3967 162.715 18.073 161.677 18.073ZM161.677 12.9941C159.228 12.9941 157.234 14.5943 157.234 16.559C157.234 18.5238 159.228 20.1239 161.677 20.1239C164.125 20.1239 166.119 18.5238 166.119 16.559C166.119 14.5943 164.125 12.9941 161.677 12.9941Z" fill="#691F74"/>
<path d="M51.7257 0.564453H49.3564V14.2141H51.7257V8.65566H53.7479C54.1634 8.65566 54.548 8.43465 54.7557 8.07219L55.6398 6.54058H51.7257V0.564453Z" fill="#691F74"/>
<path d="M42.3355 13.5608H39.9375V19.2673H51.1052C51.5207 19.2673 51.9052 19.0463 52.113 18.686L52.997 17.1544H42.3333V13.5586L42.3355 13.5608Z" fill="#691F74"/>
<path d="M71.3202 1.54909H59.516V3.66195H68.9245C68.9245 5.00348 68.8758 5.903 68.7808 7.47217H56.8418V9.58504H64.0136V12.3786H59.0386V14.5114H68.9598V19.2631H71.3578V12.3786H66.3917V9.58504H72.7347C73.1502 9.58504 73.5347 9.36403 73.7425 9.00157L74.6265 7.46996H71.0815C71.2406 4.86646 71.3202 3.26192 71.3202 1.54688" fill="#691F74"/>
<path d="M104.085 9.7475C102.361 9.90221 100.62 9.97736 98.8649 9.97736V7.76504H102.262V5.77152H98.8649V3.63214H103.716V1.52148H96.5332V12.0924C98.6836 12.0924 100.569 12.0504 102.193 11.9642C102.587 11.9444 102.943 11.7256 103.141 11.383L104.085 9.74971V9.7475Z" fill="#691F74"/>
<path d="M111.763 0.564453H109.405V14.4218H111.763V0.564453Z" fill="#691F74"/>
<path d="M103.308 7.79536H105.173H105.743V13.8135H108.104V0.955078H105.743V5.78195H103.308V7.79536Z" fill="#691F74"/>
<path d="M102.205 13.5605H99.8066V19.2494H110.84C111.255 19.2494 111.64 19.0284 111.847 18.6659L112.742 17.1144H102.205V13.5605Z" fill="#691F74"/>
<path d="M120.553 8.3153C119.285 9.31648 117.722 9.9552 115.863 10.227L117.441 12.1697C120.409 11.2813 122.56 9.88006 123.893 7.96389C124.494 8.8391 125.426 9.67231 126.688 10.4657C127.95 11.2614 129.219 11.8205 130.494 12.1476L131.864 10.1851C129.975 9.87785 128.41 9.23913 127.17 8.26668C125.93 7.29644 125.247 6.10298 125.121 4.88742H128.821C129.237 4.88742 129.621 4.66641 129.829 4.30395L130.673 2.84307H125.119V0.564453H122.721V2.84749H117.147V4.88963H122.684C122.531 6.10519 121.822 7.31191 120.553 8.3153Z" fill="#691F74"/>
<path d="M115.396 17.2568H131.678C132.094 17.2568 132.478 17.0358 132.686 16.6755L133.559 15.166H115.396V17.259V17.2568Z" fill="#691F74"/>
<path d="M140.545 13.5706H138.147V19.2284H149.598C150.014 19.2284 150.398 19.0074 150.606 18.645L151.49 17.1156H140.543V13.5684L140.545 13.5706Z" fill="#691F74"/>
<path d="M150.153 0.564453H147.812V14.382H150.153V0.564453Z" fill="#691F74"/>
<path d="M174.793 13.5703V19.2702H186.568C186.984 19.2702 187.368 19.0492 187.576 18.6889L188.46 17.1573H177.171V13.5703H174.793Z" fill="#691F74"/>
<path d="M181.693 11.9111V12.7841V13.8538H185.243V15.2462H187.639V2.48504V0.564453H185.243V6.63562V11.9111H182.197H181.693Z" fill="#691F74"/>
<path d="M88.5907 8.99468L90.9025 9.15602C91.0859 7.39235 91.1787 4.83084 91.1787 1.46484H79.0784V3.57771H88.8183L88.7984 4.78885L79.0762 5.14688V7.1404L88.741 6.62986C88.6835 7.76586 88.6327 8.55266 88.5885 8.99247" fill="#691F74"/>
<path d="M81.4741 13.5703H79.0762V19.2635H90.593C91.0085 19.2635 91.3931 19.0425 91.6008 18.6823L92.4849 17.1507H81.4719V13.5703H81.4741Z" fill="#691F74"/>
<path d="M85.1734 7.59401H82.7578V9.9765H76.585V12.0894H91.638C92.0535 12.0894 92.4381 11.8684 92.6458 11.5059L93.5299 9.97429H85.1757V7.5918L85.1734 7.59401Z" fill="#691F74"/>
<path d="M153.163 12.0629H169.12C169.536 12.0629 169.92 11.8419 170.128 11.4816L170.948 10.0605H153.161V12.0629H153.163Z" fill="#691F74"/>
<path d="M177.821 14.3272H180.141V10.917C180.838 10.886 181.532 10.8507 182.226 10.8087C182.617 10.7866 182.968 10.5678 183.165 10.2274L184.1 8.60742C180.758 8.84611 176.93 8.96767 172.618 8.9743V11.1468C173.999 11.1468 175.734 11.1026 177.819 11.0164V14.3272H177.821Z" fill="#691F74"/>
<path d="M41.4487 0.564453V2.22866H37.3711V4.23986H46.4347C46.8502 4.23986 47.2348 4.01885 47.4426 3.65639L48.2669 2.22645H43.8445V0.564453H41.4465H41.4487Z" fill="#691F74"/>
<path d="M140.563 8.33411C141.564 9.86351 142.93 11.0746 144.663 11.9697L146.174 10.058C144.875 9.60935 143.803 8.90874 142.959 7.94956C142.114 6.99258 141.692 5.93173 141.692 4.76921V3.54702H144.258C144.674 3.54702 145.058 3.32601 145.266 2.96355L146.132 1.46289H135.52V3.54481H139.297V4.84657C139.297 6.02676 138.85 6.90197 137.964 8.05564C137.08 9.21153 136.001 9.81489 134.722 10.3276L136.415 12.0891C137.157 11.7156 139.834 9.8613 140.563 8.32969" fill="#691F74"/>
</g>
<defs>
<clipPath id="clip0_805_7405">
<rect width="188.46" height="30" fill="white"/>
</clipPath>
</defs>
</svg>
